Genre:Animation | Comedy | Family
Language:English  http://www.imdb.com/title/tt1001526/
Source:DVD
Subtitles:Romana

Format : MPEG-4
Format profile : Base Media
Codec ID : isom
File size : 787 MiB
Duration : 1h 35mn
Overall bit rate : 1 152 Kbps
Movie name : Megamind 2010 DvDRip x264 Feel-Free

Video
Format settings, CABAC : Yes
Format settings, ReFrames : 4 frames
Format settings, GOP : M=4, N=32
Codec ID : avc1
Codec ID/Info : Advanced Video Coding
Duration : 1h 35mn
Bit rate mode : Variable
Bit rate : 976 Kbps
Width : 720 pixels
Height : 304 pixels
Display aspect ratio : 2.35:1
Frame rate mode : Constant
Frame rate : 23.976 fps
Color space : YUV
Chroma subsampling : 4:2:0
Bit depth : 8 bits
Scan type : Progressive
Bits/(Pixel*Frame) : 0.186
Stream size : 670 MiB (85%)
Writing library : x264

Audio
ID : 2
Format : AAC
Format/Info : Advanced Audio Codec
Format version : Version 4
Format profile : LC
Codec ID : 40
Duration : 1h 35mn
Bit rate mode : Variable
Bit rate : 165 Kbps
Channel(s) : 2 channels
Channel positions : Front: L R
Sampling rate : 48.0 KHz
Stream size : 113 MiB (14%)


Plot:
The supervillain Megamind finally conquers his nemesis, the hero Metro Man... but finds his life pointless without a hero to fight
 
http://rapidhdd.com/images/148989vlcsnap-00001.png 
http://www.rapidhdd.com/images/100421vlcsnap-00002.png 
http://www.rapidhdd.com/images/742461vlcsnap-00003.png 
http://www.rapidhdd.com/images/335235vlcsnap-00010.png 
http://www.rapidhdd.com/images/704642vlcsnap-00005.png